<svg xmlns="http://www.w3.org/2000/svg" width="651.4425659179688" height="585.1161499023438" viewBox="82.96626281738281 -229.93272399902344 651.4425659179688 585.1161499023438"><title>Neo4j Graph Visualization</title><desc>Created using Neo4j (http://www.neo4j.com/)</desc><g class="layer relationships"><g class="relationship" transform="translate(458.3711640476853 -69.63752989313781) rotate(366.0667129199729)"><path class="outline" fill="#A5ABB6" stroke="none" d="M 25 0.5 L 54.81740874033835 0.5 L 54.81740874033835 -0.5 L 25 -0.5 Z M 101.71584624033835 0.5 L 131.5332549806767 0.5 L 131.5332549806767 3.5 L 138.5332549806767 0 L 131.5332549806767 -3.5 L 131.5332549806767 -0.5 L 101.71584624033835 -0.5 Z"/><text text-anchor="middle" pointer-events="none" font-size="8px" fill="#000000" x="78.26662749033835" y="3" font-family="sans-serif">IN_GENRE</text></g><g class="relationship" transform="translate(458.3711640476853 -69.63752989313781) rotate(279.98105156608545)"><path class="outline" fill="#A5ABB6" stroke="none" d="M 25 0.5 L 39.707212233383984 0.5 L 39.707212233383984 -0.5 L 25 -0.5 Z M 86.60564973338398 0.5 L 101.31286196676797 0.5 L 101.31286196676797 3.5 L 108.31286196676797 0 L 101.31286196676797 -3.5 L 101.31286196676797 -0.5 L 86.60564973338398 -0.5 Z"/><text text-anchor="middle" pointer-events="none" font-size="8px" fill="#000000" x="63.156430983383984" y="3" font-family="sans-serif">IN_GENRE</text></g><g class="relationship" transform="translate(458.3711640476853 -69.63752989313781) rotate(331.9868489020328)"><path class="outline" fill="#A5ABB6" stroke="none" d="M 25 0.5 L 56.04556803365257 0.5 L 56.04556803365257 -0.5 L 25 -0.5 Z M 102.94400553365257 0.5 L 133.98957356730514 0.5 L 133.98957356730514 3.5 L 140.98957356730514 0 L 133.98957356730514 -3.5 L 133.98957356730514 -0.5 L 102.94400553365257 -0.5 Z"/><text text-anchor="middle" pointer-events="none" font-size="8px" fill="#000000" x="79.49478678365257" y="3" font-family="sans-serif">IN_GENRE</text></g><g class="relationship" transform="translate(705.4088812130693 169.71514007918262) rotate(224.09479269052423)"><path class="outline" fill="#A5ABB6" stroke="none" d="M 25 0.5 L 145.70518429436726 0.5 L 145.70518429436726 -0.5 L 25 -0.5 Z M 191.26768429436726 0.5 L 311.9728685887345 0.5 L 311.9728685887345 3.5 L 318.9728685887345 0 L 311.9728685887345 -3.5 L 311.9728685887345 -0.5 L 191.26768429436726 -0.5 Z"/><text text-anchor="middle" pointer-events="none" font-size="8px" fill="#000000" x="168.48643429436726" y="3" transform="rotate(180 168.48643429436726 0)" font-family="sans-serif">ACTED_IN</text></g><g class="relationship" transform="translate(428.52903944064815 167.54790691196243) rotate(277.1711413121731)"><path class="outline" fill="#A5ABB6" stroke="none" d="M 25 0.5 L 93.2464495443819 0.5 L 93.2464495443819 -0.5 L 25 -0.5 Z M 138.8089495443819 0.5 L 207.0553990887638 0.5 L 207.0553990887638 3.5 L 214.0553990887638 0 L 207.0553990887638 -3.5 L 207.0553990887638 -0.5 L 138.8089495443819 -0.5 Z"/><text text-anchor="middle" pointer-events="none" font-size="8px" fill="#000000" x="116.0276995443819" y="3" font-family="sans-serif">ACTED_IN</text></g><g class="relationship" transform="translate(578.244060149849 166.34936412920132) rotate(243.07106048576907)"><path class="outline" fill="#A5ABB6" stroke="none" d="M 25 0.5 L 106.06236088680373 0.5 L 106.06236088680373 -0.5 L 25 -0.5 Z M 151.62486088680373 0.5 L 232.68722177360746 0.5 L 232.68722177360746 3.5 L 239.68722177360746 0 L 232.68722177360746 -3.5 L 232.68722177360746 -0.5 L 151.62486088680373 -0.5 Z"/><text text-anchor="middle" pointer-events="none" font-size="8px" fill="#000000" x="128.84361088680373" y="3" transform="rotate(180 128.84361088680373 0)" font-family="sans-serif">ACTED_IN</text></g><g class="relationship" transform="translate(263.10903910620726 167.73388253572523) rotate(309.44077188296603)"><path class="outline" fill="#A5ABB6" stroke="none" d="M 25 0.5 L 127.4006331833593 0.5 L 127.4006331833593 -0.5 L 25 -0.5 Z M 172.9631331833593 0.5 L 275.3637663667186 0.5 L 275.3637663667186 3.5 L 282.3637663667186 0 L 275.3637663667186 -3.5 L 275.3637663667186 -0.5 L 172.9631331833593 -0.5 Z"/><text text-anchor="middle" pointer-events="none" font-size="8px" fill="#000000" x="150.1818831833593" y="3" font-family="sans-serif">ACTED_IN</text></g><g class="relationship" transform="translate(317.41460693126743 -53.93390776090314) rotate(353.64303225849574)"><path class="outline" fill="#A5ABB6" stroke="none" d="M 25 0.5 L 43.96899272501433 0.5 L 43.96899272501433 -0.5 L 25 -0.5 Z M 90.85961772501433 0.5 L 109.82861045002866 0.5 L 109.82861045002866 3.5 L 116.82861045002866 0 L 109.82861045002866 -3.5 L 109.82861045002866 -0.5 L 90.85961772501433 -0.5 Z"/><text text-anchor="middle" pointer-events="none" font-size="8px" fill="#000000" x="67.41430522501433" y="3" font-family="sans-serif">DIRECTED</text></g><g class="relationship" transform="translate(353.2860309675172 -173.85175227415456) rotate(404.7615892352311)"><path class="outline" fill="#A5ABB6" stroke="none" d="M 25 0.5 L 47.053824895237 0.5 L 47.053824895237 -0.5 L 25 -0.5 Z M 93.944449895237 0.5 L 115.998274790474 0.5 L 115.998274790474 3.5 L 122.998274790474 0 L 115.998274790474 -3.5 L 115.998274790474 -0.5 L 93.944449895237 -0.5 Z"/><text text-anchor="middle" pointer-events="none" font-size="8px" fill="#000000" x="70.499137395237" y="3" font-family="sans-serif">DIRECTED</text></g><g class="relationship" transform="translate(263.10903910620726 167.73388253572523) rotate(398.19703605766176)"><path class="outline" fill="#A5ABB6" stroke="none" d="M 25 0.5 L 97.06743617021807 0.5 L 97.06743617021807 -0.5 L 25 -0.5 Z M 142.62993617021806 0.5 L 214.69737234043615 0.5 L 214.69737234043615 3.5 L 221.69737234043615 0 L 214.69737234043615 -3.5 L 214.69737234043615 -0.5 L 142.62993617021806 -0.5 Z"/><text text-anchor="middle" pointer-events="none" font-size="8px" fill="#000000" x="119.84868617021807" y="3" font-family="sans-serif">ACTED_IN</text></g><g class="relationship" transform="translate(263.10903910620726 167.73388253572523) rotate(447.1617872169071)"><path class="outline" fill="#A5ABB6" stroke="none" d="M 25 0.5 L 47.58738285504347 0.5 L 47.58738285504347 -0.5 L 25 -0.5 Z M 93.14988285504347 0.5 L 115.73726571008694 0.5 L 115.73726571008694 3.5 L 122.73726571008694 0 L 115.73726571008694 -3.5 L 115.73726571008694 -0.5 L 93.14988285504347 -0.5 Z"/><text text-anchor="middle" pointer-events="none" font-size="8px" fill="#000000" x="70.36863285504347" y="3" font-family="sans-serif">ACTED_IN</text></g><g class="relationship" transform="translate(263.10903910620726 167.73388253572523) rotate(419.1308530081069)"><path class="outline" fill="#A5ABB6" stroke="none" d="M 25 0.5 L 66.0185965782222 0.5 L 66.0185965782222 -0.5 L 25 -0.5 Z M 111.5810965782222 0.5 L 152.5996931564444 0.5 L 152.5996931564444 3.5 L 159.5996931564444 0 L 152.5996931564444 -3.5 L 152.5996931564444 -0.5 L 111.5810965782222 -0.5 Z"/><text text-anchor="middle" pointer-events="none" font-size="8px" fill="#000000" x="88.7998465782222" y="3" font-family="sans-serif">ACTED_IN</text></g><g class="relationship" transform="translate(263.10903910620726 167.73388253572523) rotate(473.5586281731719)"><path class="outline" fill="#A5ABB6" stroke="none" d="M 25 0.5 L 56.60811576635467 0.5 L 56.60811576635467 -0.5 L 25 -0.5 Z M 102.17061576635467 0.5 L 133.77873153270934 0.5 L 133.77873153270934 3.5 L 140.77873153270934 0 L 133.77873153270934 -3.5 L 133.77873153270934 -0.5 L 102.17061576635467 -0.5 Z"/><text text-anchor="middle" pointer-events="none" font-size="8px" fill="#000000" x="79.38936576635467" y="3" transform="rotate(180 79.38936576635467 0)" font-family="sans-serif">ACTED_IN</text></g><g class="relationship" transform="translate(263.10903910620726 167.73388253572523) rotate(496.56077775750697)"><path class="outline" fill="#A5ABB6" stroke="none" d="M 25 0.5 L 77.79663818777017 0.5 L 77.79663818777017 -0.5 L 25 -0.5 Z M 123.35913818777017 0.5 L 176.15577637554034 0.5 L 176.15577637554034 3.5 L 183.15577637554034 0 L 176.15577637554034 -3.5 L 176.15577637554034 -0.5 L 123.35913818777017 -0.5 Z"/><text text-anchor="middle" pointer-events="none" font-size="8px" fill="#000000" x="100.57788818777017" y="3" transform="rotate(180 100.57788818777017 0)" font-family="sans-serif">ACTED_IN</text></g></g><g class="layer nodes"><g class="node" transform="translate(458.3711640476853,-69.63752989313781)"><circle class="outline" cx="0" cy="0" r="25" fill="#FF756E" stroke="#E06760" stroke-width="2px"/><text text-anchor="middle" pointer-events="none" font-family="sans-serif" dy="1.5625" font-size="25" fill="#FFFFFF"/><text text-anchor="middle" pointer-events="none" font-family="sans-serif" dy="1.5625" font-size="25" fill="#FFFFFF"/><text text-anchor="middle" pointer-events="none" y="0" font-size="10px" fill="#FFFFFF" font-family="sans-serif"> Matrix,</text><text text-anchor="middle" pointer-events="none" y="10" font-size="10px" fill="#FFFFFF" font-family="sans-serif"> The</text></g><g class="node" transform="translate(620.9885530729974,-52.35429318338615)"><circle class="outline" cx="0" cy="0" r="25" fill="#6DCE9E" stroke="#60B58B" stroke-width="2px"/><text text-anchor="middle" pointer-events="none" font-family="sans-serif" dy="1.5625" font-size="25" fill="#FFFFFF"/><text text-anchor="middle" pointer-events="none" y="5" font-size="10px" fill="#FFFFFF" font-family="sans-serif"> Thriller</text></g><g class="node" transform="translate(481.47727988417677,-200.93271859676537)"><circle class="outline" cx="0" cy="0" r="25" fill="#6DCE9E" stroke="#60B58B" stroke-width="2px"/><text text-anchor="middle" pointer-events="none" font-family="sans-serif" dy="1.5625" font-size="25" fill="#FFFFFF"/><text text-anchor="middle" pointer-events="none" y="5" font-size="10px" fill="#FFFFFF" font-family="sans-serif"> Sci-Fi</text></g><g class="node" transform="translate(604.9133679386559,-147.5985522814633)"><circle class="outline" cx="0" cy="0" r="25" fill="#6DCE9E" stroke="#60B58B" stroke-width="2px"/><text text-anchor="middle" pointer-events="none" font-family="sans-serif" dy="1.5625" font-size="25" fill="#FFFFFF"/><text text-anchor="middle" pointer-events="none" y="5" font-size="10px" fill="#FFFFFF" font-family="sans-serif"> Action</text></g><g class="node" transform="translate(705.4088812130693,169.71514007918262)"><circle class="outline" cx="0" cy="0" r="25" fill="#68BDF6" stroke="#5CA8DB" stroke-width="2px"/><text text-anchor="middle" pointer-events="none" font-family="sans-serif" dy="1.5625" font-size="25" fill="#FFFFFF"/><text text-anchor="middle" pointer-events="none" font-family="sans-serif" dy="1.5625" font-size="25" fill="#FFFFFF"/><text text-anchor="middle" pointer-events="none" y="0" font-size="10px" fill="#FFFFFF" font-family="sans-serif">  Hugo</text><text text-anchor="middle" pointer-events="none" y="10" font-size="10px" fill="#FFFFFF" font-family="sans-serif"> Weaving</text></g><g class="node selected" transform="translate(428.52903944064815,167.54790691196243)"><circle class="outline" cx="0" cy="0" r="25" fill="#68BDF6" stroke="#5CA8DB" stroke-width="2px"/><text text-anchor="middle" pointer-events="none" font-family="sans-serif" dy="1.5625" font-size="25" fill="#FFFFFF"/><text text-anchor="middle" pointer-events="none" font-family="sans-serif" dy="1.5625" font-size="25" fill="#FFFFFF"/><text text-anchor="middle" pointer-events="none" y="0" font-size="10px" fill="#FFFFFF" font-family="sans-serif"> </text><text text-anchor="middle" pointer-events="none" y="10" font-size="10px" fill="#FFFFFF" font-family="sans-serif"> Carrie-…</text></g><g class="node" transform="translate(578.244060149849,166.34936412920132)"><circle class="outline" cx="0" cy="0" r="25" fill="#68BDF6" stroke="#5CA8DB" stroke-width="2px"/><text text-anchor="middle" pointer-events="none" font-family="sans-serif" dy="1.5625" font-size="25" fill="#FFFFFF"/><text text-anchor="middle" pointer-events="none" font-family="sans-serif" dy="1.5625" font-size="25" fill="#FFFFFF"/><text text-anchor="middle" pointer-events="none" font-family="sans-serif" dy="1.5625" font-size="25" fill="#FFFFFF"/><text text-anchor="middle" pointer-events="none" y="-5" font-size="10px" fill="#FFFFFF" font-family="sans-serif"> </text><text text-anchor="middle" pointer-events="none" y="5" font-size="10px" fill="#FFFFFF" font-family="sans-serif"> Laurence</text><text text-anchor="middle" pointer-events="none" y="15" font-size="10px" fill="#FFFFFF" font-family="sans-serif"> Fishb…</text></g><g class="node" transform="translate(263.10903910620726,167.73388253572523)"><circle class="outline" cx="0" cy="0" r="25" fill="#68BDF6" stroke="#5CA8DB" stroke-width="2px"/><text text-anchor="middle" pointer-events="none" font-family="sans-serif" dy="1.5625" font-size="25" fill="#FFFFFF"/><text text-anchor="middle" pointer-events="none" font-family="sans-serif" dy="1.5625" font-size="25" fill="#FFFFFF"/><text text-anchor="middle" pointer-events="none" y="0" font-size="10px" fill="#FFFFFF" font-family="sans-serif"> Keanu</text><text text-anchor="middle" pointer-events="none" y="10" font-size="10px" fill="#FFFFFF" font-family="sans-serif"> Reeves</text></g><g class="node" transform="translate(317.41460693126743,-53.93390776090314)"><circle class="outline" cx="0" cy="0" r="25" fill="#FFD86E" stroke="#EDBA39" stroke-width="2px"/><text text-anchor="middle" pointer-events="none" font-family="sans-serif" dy="1.5625" font-size="25" fill="#604A0E"/><text text-anchor="middle" pointer-events="none" font-family="sans-serif" dy="1.5625" font-size="25" fill="#604A0E"/><text text-anchor="middle" pointer-events="none" y="0" font-size="10px" fill="#604A0E" font-family="sans-serif">  Lana</text><text text-anchor="middle" pointer-events="none" y="10" font-size="10px" fill="#604A0E" font-family="sans-serif"> Wacho…</text></g><g class="node" transform="translate(353.2860309675172,-173.85175227415456)"><circle class="outline" cx="0" cy="0" r="25" fill="#FFD86E" stroke="#EDBA39" stroke-width="2px"/><text text-anchor="middle" pointer-events="none" font-family="sans-serif" dy="1.5625" font-size="25" fill="#604A0E"/><text text-anchor="middle" pointer-events="none" font-family="sans-serif" dy="1.5625" font-size="25" fill="#604A0E"/><text text-anchor="middle" pointer-events="none" y="0" font-size="10px" fill="#604A0E" font-family="sans-serif"> Andy</text><text text-anchor="middle" pointer-events="none" y="10" font-size="10px" fill="#604A0E" font-family="sans-serif"> Wacho…</text></g><g class="node" transform="translate(456.98576142773845,320.28357955782906)"><circle class="outline" cx="0" cy="0" r="25" fill="#FF756E" stroke="#E06760" stroke-width="2px"/><text text-anchor="middle" pointer-events="none" font-family="sans-serif" dy="1.5625" font-size="25" fill="#FFFFFF"/><text text-anchor="middle" pointer-events="none" y="5" font-size="10px" fill="#FFFFFF" font-family="sans-serif"> 47 Ronin</text></g><g class="node" transform="translate(270.42438300738297,315.2899241710997)"><circle class="outline" cx="0" cy="0" r="25" fill="#FF756E" stroke="#E06760" stroke-width="2px"/><text text-anchor="middle" pointer-events="none" font-family="sans-serif" dy="1.5625" font-size="25" fill="#FFFFFF"/><text text-anchor="middle" pointer-events="none" y="5" font-size="10px" fill="#FFFFFF" font-family="sans-serif"> Constan…</text></g><g class="node" transform="translate(357.8232874433314,326.18342616203864)"><circle class="outline" cx="0" cy="0" r="25" fill="#FF756E" stroke="#E06760" stroke-width="2px"/><text text-anchor="middle" pointer-events="none" font-family="sans-serif" dy="1.5625" font-size="25" fill="#FFFFFF"/><text text-anchor="middle" pointer-events="none" font-family="sans-serif" dy="1.5625" font-size="25" fill="#FFFFFF"/><text text-anchor="middle" pointer-events="none" y="0" font-size="10px" fill="#FFFFFF" font-family="sans-serif"> Chain</text><text text-anchor="middle" pointer-events="none" y="10" font-size="10px" fill="#FFFFFF" font-family="sans-serif"> Reaction</text></g><g class="node" transform="translate(196.84939445492563,319.69521748406004)"><circle class="outline" cx="0" cy="0" r="25" fill="#FF756E" stroke="#E06760" stroke-width="2px"/><text text-anchor="middle" pointer-events="none" font-family="sans-serif" dy="1.5625" font-size="25" fill="#FFFFFF"/><text text-anchor="middle" pointer-events="none" font-family="sans-serif" dy="1.5625" font-size="25" fill="#FFFFFF"/><text text-anchor="middle" pointer-events="none" y="0" font-size="10px" fill="#FFFFFF" font-family="sans-serif"> Johnny</text><text text-anchor="middle" pointer-events="none" y="10" font-size="10px" fill="#FFFFFF" font-family="sans-serif"> Mnemo…</text></g><g class="node" transform="translate(111.96626603079025,310.85861619688166)"><circle class="outline" cx="0" cy="0" r="25" fill="#FF756E" stroke="#E06760" stroke-width="2px"/><text text-anchor="middle" pointer-events="none" font-family="sans-serif" dy="1.5625" font-size="25" fill="#FFFFFF"/><text text-anchor="middle" pointer-events="none" y="5" font-size="10px" fill="#FFFFFF" font-family="sans-serif"> Speed</text></g></g></svg>